<?xml version="1.0" encoding="utf-8"?>
<!-- Generator: Adobe Illustrator 16.0.0, SVG Export Plug-In . SVG Version: 6.00 Build 0)  -->
<!DOCTYPE svg PUBLIC "-//W3C//DTD SVG 1.1//EN" "http://www.w3.org/Graphics/SVG/1.1/DTD/svg11.dtd">
<svg version="1.1" id="Layer_1" xmlns="http://www.w3.org/2000/svg" xmlns:xlink="http://www.w3.org/1999/xlink" x="0px" y="0px"
	 width="68.107px" height="13.518px" viewBox="0 0 68.107 13.518" enable-background="new 0 0 68.107 13.518" xml:space="preserve">
<g>
	<path fill="#0C4E8C" d="M2.701,8.684h3.58v1.582H0.645V1.734h2.057V8.684z"/>
	<path fill="#0C4E8C" d="M13.998,6.176c0,0.832-0.154,1.568-0.463,2.209s-0.747,1.134-1.315,1.479s-1.216,0.519-1.942,0.519
		s-1.371-0.167-1.934-0.501S7.343,9.07,7.028,8.449S6.549,7.115,6.533,6.311V5.83c0-0.836,0.153-1.573,0.46-2.212
		s0.746-1.132,1.318-1.479s1.224-0.521,1.954-0.521c0.723,0,1.367,0.172,1.934,0.516s1.007,0.833,1.321,1.468
		s0.474,1.362,0.478,2.183V6.176z M11.906,5.818c0-0.848-0.142-1.491-0.425-1.931s-0.688-0.659-1.216-0.659
		c-1.031,0-1.576,0.773-1.635,2.32L8.625,6.176c0,0.836,0.139,1.479,0.416,1.928s0.689,0.674,1.236,0.674
		c0.52,0,0.92-0.221,1.201-0.662s0.424-1.076,0.428-1.904V5.818z"/>
	<path fill="#0C4E8C" d="M21.668,7.084l0.979-5.35h2.039l-1.811,8.531h-2.133L19.6,5.402l-1.119,4.863h-2.127l-1.816-8.531h2.045
		l0.979,5.35l1.172-5.35h1.746L21.668,7.084z"/>
</g>
<g>
	<path fill="#243a4b" d="M25.503,10.266h-2.051V1.734h2.051V10.266z"/>
	<path fill="#243a4b" d="M34.058,10.266h-2.045l-3.023-5.309v5.309h-2.057V1.734h2.057l3.018,5.309V1.734h2.051V10.266z"/>
	<path fill="#243a4b" d="M42.261,7.377c-0.027,0.594-0.188,1.118-0.48,1.573s-0.704,0.808-1.233,1.058s-1.134,0.375-1.813,0.375
		c-1.121,0-2.004-0.365-2.648-1.096s-0.967-1.762-0.967-3.094V5.771c0-0.836,0.146-1.567,0.437-2.194s0.71-1.111,1.257-1.453
		s1.18-0.513,1.898-0.513c1.035,0,1.867,0.272,2.496,0.817s0.986,1.296,1.072,2.253h-2.051c-0.016-0.52-0.146-0.893-0.393-1.119
		s-0.621-0.34-1.125-0.34c-0.512,0-0.887,0.191-1.125,0.574s-0.363,0.994-0.375,1.834v0.604c0,0.91,0.114,1.561,0.343,1.951
		s0.622,0.586,1.181,0.586c0.473,0,0.834-0.111,1.084-0.334s0.383-0.576,0.398-1.061H42.261z"/>
	<path fill="#243a4b" d="M50.458,6.176c0,0.832-0.154,1.568-0.463,2.209s-0.748,1.134-1.316,1.479s-1.215,0.519-1.942,0.519
		c-0.727,0-1.371-0.167-1.934-0.501s-1.001-0.812-1.315-1.433s-0.479-1.334-0.495-2.139V5.83c0-0.836,0.153-1.573,0.46-2.212
		s0.746-1.132,1.318-1.479s1.224-0.521,1.954-0.521c0.723,0,1.368,0.172,1.934,0.516s1.006,0.833,1.32,1.468
		s0.475,1.362,0.479,2.183V6.176z M48.367,5.818c0-0.848-0.143-1.491-0.426-1.931s-0.688-0.659-1.215-0.659
		c-1.031,0-1.576,0.773-1.635,2.32l-0.006,0.627c0,0.836,0.139,1.479,0.416,1.928s0.689,0.674,1.236,0.674
		c0.52,0,0.92-0.221,1.202-0.662s0.424-1.076,0.428-1.904V5.818z"/>
	<path fill="#243a4b" d="M54.22,1.734l1.904,5.936l1.898-5.936h2.707v8.531h-2.063V8.273l0.199-4.078l-2.063,6.07h-1.359
		l-2.068-6.076l0.199,4.084v1.992h-2.057V1.734H54.22z"/>
	<path fill="#243a4b" d="M67.328,6.645h-3.234v2.039h3.82v1.582h-5.877V1.734h5.889v1.588h-3.832v1.799h3.234V6.645z"/>
</g>
</svg>
